<svg width="48" height="50" viewBox="0 0 48 50" fill="none" xmlns="http://www.w3.org/2000/svg">
<path d="M24.75 0C14.4 0 6 8.4 6 18.75C6 26.64 10.875 33.375 17.775 36.15C17.835 35.64 17.955 35.145 18.105 34.665C11.745 31.995 7.5 25.68 7.5 18.75C7.5 9.24 15.24 1.5 24.75 1.5C34.26 1.5 42 9.24 42 18.75C42 25.665 37.755 31.995 31.395 34.665C31.545 35.145 31.665 35.655 31.725 36.15C38.625 33.375 43.5 26.64 43.5 18.75C43.5 8.4 35.1 0 24.75 0Z" fill="#111111"/>
<path d="M31.5 36V46.5H18V36H31.5ZM33 34.5H16.5V48H33V34.5Z" fill="#111111"/>
<path d="M17.25 46.5L32.25 42" stroke="#111111" stroke-miterlimit="10"/>
<path d="M17.25 42L32.25 37.5" stroke="#111111" stroke-miterlimit="10"/>
<path d="M24.75 31.5C31.7916 31.5 37.5 25.7916 37.5 18.75C37.5 11.7084 31.7916 6 24.75 6C17.7084 6 12 11.7084 12 18.75C12 25.7916 17.7084 31.5 24.75 31.5Z" fill="#E5CE1C"/>
<path d="M25.5 24H24V34.5H25.5V24Z" fill="#111111"/>
<path d="M18.75 18L24.75 24L30.75 18" stroke="black"/>
</svg>
