<svg width="100" height="20" viewBox="0 0 100 20" fill="none" xmlns="http://www.w3.org/2000/svg">
<g clip-path="url(#clip0_305_338)">
<path d="M99.1998 15.275V17.7188H97.1498C94.9623 17.65 93.7936 16.4688 93.7936 14.25V8.66875H92.3623V6.525H93.7936V4.125H96.8186V6.5H99.1311V8.6375H96.8186V13.95C96.8186 14.6688 96.9623 15.2438 98.0686 15.2438L99.1998 15.275Z" fill="#111111"/>
<path d="M80.306 12.1437V11.9812C80.2731 11.2624 80.3827 10.5442 80.6281 9.8677C80.8735 9.19124 81.2502 8.56986 81.736 8.0392C82.2218 7.50853 82.8077 7.07895 83.4602 6.77515C84.1127 6.47132 84.8185 6.29924 85.5373 6.26874C85.681 6.26874 85.831 6.26874 85.9748 6.26874C88.831 6.26874 91.3373 7.93124 91.3373 11.8937V12.7375H83.3998C83.481 14.5625 84.4685 15.5937 86.131 15.5937C87.5623 15.5937 88.231 14.9687 88.4248 14.0562H91.281C90.931 16.4375 89.031 17.7625 86.0248 17.7625C82.7248 17.7375 80.306 15.65 80.306 12.1437ZM88.3623 10.825C88.256 9.16249 87.4185 8.36249 85.9623 8.36249C84.506 8.36249 83.6685 9.26249 83.4623 10.825H88.3623Z" fill="#111111"/>
<path d="M67.9564 12.1437V11.9812C67.9235 11.2634 68.0327 10.5462 68.2772 9.87049C68.5218 9.19482 68.8972 8.57399 69.3818 8.04345C69.8664 7.51295 70.451 7.08311 71.1018 6.77861C71.7527 6.47411 72.4572 6.30082 73.1752 6.26874C73.3189 6.26874 73.4689 6.26874 73.6127 6.26874C76.4689 6.26874 78.9814 7.93124 78.9814 11.8937V12.7375H71.0502C71.1314 14.5625 72.1189 15.5937 73.7814 15.5937C75.2127 15.5937 75.8814 14.9687 76.0752 14.0562H78.9314C78.5752 16.4375 76.6752 17.7625 73.6689 17.7625C70.3752 17.7375 67.9564 15.65 67.9564 12.1437ZM76.0127 10.825C75.9064 9.16249 75.0689 8.36249 73.6127 8.36249C72.1564 8.36249 71.3439 9.28749 71.1127 10.8187L76.0127 10.825Z" fill="#111111"/>
<path d="M50.625 6.5H53.825L55.7813 13.9125L57.925 6.5H60.425L62.3625 13.9125L64.425 6.5H67.3563L63.8813 17.5125H60.8813L59.0063 10.6L57 17.5125H53.9625L50.625 6.5Z" fill="#111111"/>
<path d="M40.4561 14.05H43.3123C43.4436 15.0437 43.9373 15.6125 45.2498 15.6125C46.4248 15.6125 46.9686 15.1687 46.9686 14.4125C46.9686 13.6562 46.3436 13.3375 44.7436 13.1125C41.8123 12.6687 40.6811 11.825 40.6811 9.67499C40.6811 7.38124 42.7811 6.24374 45.0561 6.24374C47.4998 6.24374 49.3436 7.13124 49.6061 9.66249H46.7873C46.7694 9.46679 46.7127 9.27662 46.6206 9.10291C46.529 8.92924 46.4036 8.77549 46.2519 8.65054C46.1002 8.52558 45.9252 8.43195 45.7373 8.37499C45.549 8.31804 45.3515 8.29891 45.1561 8.31874H45.0623C44.0748 8.31874 43.4998 8.78124 43.4998 9.45624C43.4998 10.1312 44.0311 10.425 45.6436 10.6562C48.3811 11.0687 49.9123 11.7625 49.9123 14.1187C49.9123 16.475 48.1811 17.7375 45.2811 17.7375C42.3811 17.7375 40.5373 16.4312 40.4561 14.05Z" fill="#111111"/>
<path d="M28.3188 6.49999H31.3438V8.24374C31.6848 7.6037 32.2024 7.07499 32.835 6.72049C33.4676 6.36595 34.1887 6.20049 34.9126 6.24374C37.0563 6.24374 38.6126 7.54999 38.6126 10.5312V17.5375H35.6251V10.9687C35.6251 9.47499 35.0438 8.76249 33.6938 8.76249C33.4085 8.73766 33.1211 8.76941 32.8481 8.85595C32.575 8.94249 32.3218 9.08208 32.1028 9.26674C31.8839 9.45145 31.7036 9.67754 31.5723 9.93208C31.441 10.1866 31.3612 10.4646 31.3376 10.75C31.322 10.8829 31.322 11.0171 31.3376 11.15V17.5125H28.3188V6.49999Z" fill="#111111"/>
<path d="M22.4815 3.73124C22.4705 3.42964 22.5493 3.13156 22.7078 2.87476C22.8663 2.61795 23.0976 2.41396 23.3721 2.28861C23.6466 2.16326 23.9522 2.12219 24.2501 2.17059C24.548 2.219 24.8248 2.35472 25.0455 2.56055C25.2663 2.76638 25.4209 3.03308 25.49 3.32687C25.5591 3.62067 25.5394 3.92835 25.4335 4.21095C25.3276 4.49358 25.1402 4.73841 24.8951 4.91445C24.65 5.09054 24.3581 5.18991 24.0565 5.19999H24.0002C23.813 5.21183 23.6253 5.18662 23.4478 5.12574C23.2704 5.06491 23.1068 4.96958 22.9662 4.84533C22.8257 4.72108 22.7111 4.57029 22.629 4.40162C22.5469 4.23295 22.4988 4.04975 22.4877 3.86249C22.4825 3.81895 22.4804 3.77509 22.4815 3.73124ZM22.4815 6.49999H25.5377V17.5125H22.494L22.4815 6.49999Z" fill="#111111"/>
<path d="M10.9624 2.46249H20.6249V5.13124H14.3749V9.11249H19.3249V11.6812H14.3687V17.5125H10.9624V2.46249Z" fill="#111111"/>
<path d="M5.13125 7.3875C5.13125 8.33125 5.13125 9.48125 3.83125 9.95C5.1625 10.4062 5.13125 11.375 5.13125 12.3875V16.1375C5.13125 16.85 5.41875 17.2812 5.93125 17.3875C6.04388 17.4255 6.1625 17.4425 6.28125 17.4375H7.53125V19.9375H5.46875C3.26875 19.9375 2.05625 18.6875 2.05625 16.3688V11.9313C2.04065 11.7034 1.9402 11.4898 1.77473 11.3324C1.60927 11.175 1.39081 11.0854 1.1625 11.0813H0.625V8.8875H1.1625C1.39537 8.88442 1.61811 8.79183 1.78453 8.62892C1.95093 8.466 2.04824 8.24525 2.05625 8.0125V3.5125C2.05625 1.23125 3.24375 0 5.46875 0H7.55V2.4625H6.3C6.18113 2.46285 6.063 2.48183 5.95 2.51875C5.4375 2.65 5.15 3.075 5.15 3.76875L5.13125 7.3875Z" fill="#111111"/>
</g>
<defs>
<clipPath id="clip0_305_338">
<rect width="98.75" height="20" fill="white" transform="translate(0.625)"/>
</clipPath>
</defs>
</svg>
